<svg width="349" height="282" viewBox="0 0 349 282" fill="none" xmlns="http://www.w3.org/2000/svg">
<g clip-path="url(#clip0_165_139)">
<path d="M229.642 157.887C222.279 162.305 209.162 167.842 195.758 162.152L187.093 158.474L204.457 138.996C190.601 123.708 182.935 103.801 182.956 83.162C182.977 62.5227 190.684 42.6319 204.571 27.3722C218.458 12.1124 237.53 2.579 258.063 0.632677C278.596 -1.31364 299.118 4.46685 315.621 16.8459C332.125 29.2249 343.426 47.3139 347.32 67.5822C351.213 87.8505 347.419 108.843 336.678 126.463C325.937 144.083 309.02 157.065 289.228 162.875C269.437 168.685 248.193 166.907 229.642 157.887ZM196.373 83.1155C196.334 92.6298 198.264 102.049 202.04 110.781C205.816 119.513 211.357 127.368 218.314 133.853L223.103 138.357L212.177 150.614C217.868 149.458 222.825 146.377 225.339 144.588L228.788 142.132L232.497 144.172C242.75 149.789 254.252 152.733 265.941 152.732C304.302 152.732 335.51 121.502 335.51 83.1155C335.51 44.7289 304.302 13.499 265.941 13.499C227.581 13.499 196.373 44.7289 196.373 83.1155Z" fill="#3F3D56"/>
<path d="M189.628 83.1155C189.628 40.9397 223.795 6.74951 265.941 6.74951C308.088 6.74951 342.255 40.9397 342.255 83.1155C342.255 125.291 308.088 159.481 265.941 159.481C253.114 159.5 240.491 156.268 229.249 150.087C223.974 153.843 211.105 161.335 198.392 155.938L213.695 138.772C206.088 131.639 200.026 123.019 195.886 113.445C191.746 103.871 189.616 93.5475 189.628 83.1155Z" fill="#008544"/>
<path opacity="0.1" d="M329.255 83.281C329.255 43.3802 298.673 10.6327 259.686 7.21531C261.909 7.02047 264.157 6.91504 266.431 6.91504C308.578 6.91504 342.745 41.1052 342.745 83.281C342.745 125.457 308.578 159.647 266.431 159.647C264.161 159.647 261.916 159.54 259.697 159.346C298.678 155.923 329.255 123.178 329.255 83.281Z" fill="black"/>
<path d="M90.0849 263.975C71.0165 263.984 52.5244 257.434 37.7077 245.423C22.891 233.412 12.6501 216.67 8.70125 198.002C4.75239 179.334 7.33556 159.875 16.0178 142.887C24.7001 125.898 38.9539 112.412 56.3904 104.688C73.8269 96.9645 93.3865 95.4729 111.791 100.463C130.196 105.454 146.327 116.623 157.482 132.099C168.637 147.575 174.136 166.417 173.06 185.468C171.984 204.519 164.396 222.621 151.57 236.74L168.933 256.218L160.268 259.896C146.864 265.586 133.747 260.05 126.385 255.631C115.07 261.12 102.659 263.973 90.0849 263.975ZM90.0849 111.243C51.7246 111.243 20.5161 142.473 20.5161 180.86C20.5161 219.247 51.7246 250.476 90.0849 250.476C101.774 250.477 113.276 247.534 123.529 241.916L127.238 239.876L130.687 242.332C133.201 244.122 138.158 247.202 143.849 248.358L132.923 236.102L137.712 231.598C144.669 225.113 150.21 217.257 153.986 208.525C157.762 199.793 159.692 190.374 159.654 180.86C159.654 142.473 128.445 111.243 90.0849 111.243Z" fill="#3F3D56"/>
<path d="M166.399 180.86C166.399 138.684 132.232 104.494 90.0849 104.494C47.938 104.494 13.7712 138.684 13.7712 180.86C13.7712 223.036 47.938 257.226 90.0849 257.226C102.912 257.244 115.535 254.013 126.777 247.832C132.052 251.588 144.921 259.079 157.635 253.683L142.331 236.516C149.939 229.384 156 220.763 160.14 211.189C164.28 201.615 166.411 191.292 166.399 180.86Z" fill="#008544"/>
<path opacity="0.1" d="M27.261 180.474C27.261 140.573 57.8429 107.826 96.8298 104.408C94.6069 104.214 92.3583 104.108 90.0849 104.108C47.938 104.108 13.7712 138.298 13.7712 180.474C13.7712 222.65 47.938 256.84 90.0849 256.84C92.3549 256.84 94.5995 256.733 96.8191 256.539C57.8374 253.116 27.261 220.371 27.261 180.474Z" fill="black"/>
<path d="M283.857 58.854C278.864 50.4115 268.985 50.0181 268.985 50.0181C268.985 50.0181 259.359 48.7863 253.184 61.6443C247.429 73.6291 239.485 85.2007 251.906 88.0063L254.149 81.0189L255.538 88.5265C257.307 88.6537 259.081 88.6841 260.853 88.6173C274.154 88.1876 286.821 88.7431 286.413 83.9668C285.871 77.6175 288.661 66.9775 283.857 58.854Z" fill="#2F2E41"/>
<path d="M251.196 132.789C251.05 133.718 250.837 134.635 250.56 135.533C250.247 136.412 249.765 137.225 249.479 138.114C248.568 140.945 249.831 144.102 251.847 146.287C253.596 148.175 255.852 149.516 258.346 150.149C260.181 150.542 262.053 150.739 263.93 150.736C269.121 150.912 274.445 151.07 279.363 149.401C280.917 148.86 282.418 148.178 283.847 147.362C284.298 147.147 284.696 146.834 285.011 146.446C285.34 145.877 285.487 145.22 285.43 144.565C285.419 142.363 284.973 140.172 285.079 137.973C285.138 136.755 285.366 135.538 285.254 134.323C285.098 132.944 284.521 131.646 283.6 130.608C282.68 129.569 281.461 128.841 280.111 128.523C278.716 128.223 277.269 128.386 275.848 128.523C272.161 128.877 268.458 129.043 264.754 129.019C260.969 128.995 257.208 128.417 253.442 128.357C252.328 128.339 252.351 128.682 251.996 129.761C251.67 130.754 251.403 131.765 251.196 132.789Z" fill="#2F2E41"/>
<path d="M261.937 78.4185C261.755 79.3715 261.558 80.3593 260.986 81.1424C260.328 82.0434 259.254 82.5583 258.546 83.4205C257.48 84.7185 257.418 86.5449 257.414 88.225C257.41 89.7728 257.441 91.4237 258.304 92.7085C258.918 93.5066 259.68 94.1788 260.548 94.6883C263.783 96.8697 267.278 99.0903 271.178 99.1622C272.794 99.192 274.527 98.7744 275.59 97.5564C276.049 96.9843 276.41 96.3398 276.658 95.6494C277.655 93.1895 278.26 90.588 278.45 87.9402C278.593 86.6955 278.477 85.4344 278.109 84.2369C277.635 82.915 276.677 81.8274 276.044 80.5741C275.295 79.0838 275.021 77.3997 275.259 75.7489C275.291 75.6326 275.281 75.5091 275.232 75.3992C275.18 75.3404 275.115 75.2944 275.042 75.2649C274.969 75.2354 274.891 75.2231 274.812 75.2291L267.079 74.672C266.359 74.6362 265.642 74.5541 264.932 74.4262C264.515 74.3414 263.414 73.7489 263.017 73.9065C262.281 74.1981 262.088 77.6282 261.937 78.4185Z" fill="#A0616A"/>
<path opacity="0.1" d="M261.937 78.6601C261.755 79.613 261.558 80.6008 260.986 81.384C260.328 82.285 259.254 82.7998 258.546 83.6621C257.48 84.9601 257.418 86.7865 257.414 88.4666C257.41 90.0144 257.441 91.6653 258.304 92.9501C258.918 93.7482 259.68 94.4204 260.548 94.9299C263.783 97.1113 267.278 99.3319 271.178 99.4038C272.794 99.4336 274.527 99.016 275.59 97.798C276.049 97.2258 276.41 96.5814 276.658 95.891C277.655 93.4311 278.26 90.8296 278.449 88.1818C278.593 86.937 278.477 85.676 278.108 84.4785C277.635 83.1566 276.677 82.069 276.044 80.8157C275.295 79.3254 275.021 77.6413 275.259 75.9904C275.291 75.8742 275.281 75.7506 275.232 75.6408C275.18 75.5819 275.115 75.536 275.042 75.5065C274.969 75.477 274.891 75.4647 274.812 75.4707L267.079 74.9136C266.359 74.8778 265.642 74.7957 264.932 74.6678C264.515 74.583 263.414 73.9905 263.017 74.148C262.281 74.4397 262.088 77.8698 261.937 78.6601Z" fill="black"/>
<path d="M269.332 79.4562C275.598 79.4562 280.678 74.3732 280.678 68.103C280.678 61.8328 275.598 56.7498 269.332 56.7498C263.066 56.7498 257.987 61.8328 257.987 68.103C257.987 74.3732 263.066 79.4562 269.332 79.4562Z" fill="#A0616A"/>
<path d="M263.528 93.5314C264.089 94.1808 264.764 94.7211 265.521 95.1248C266.31 95.4511 267.157 95.6125 268.011 95.5991C270.056 95.6567 272.273 95.2817 273.695 93.8104C275.529 91.9138 275.469 88.8548 276.906 86.6422C277.022 86.4416 277.18 86.2686 277.37 86.1352C277.611 86.0039 277.883 85.9412 278.157 85.954C279.973 85.937 281.554 87.1153 282.982 88.2381C283.653 88.7008 284.23 89.2884 284.68 89.9691C284.962 90.5201 285.155 91.1124 285.252 91.7239C285.961 95.1837 286.19 98.7213 286.418 102.246C286.543 104.192 286.669 106.141 286.66 108.092C286.629 114.518 285.136 120.837 283.652 127.09C283.46 127.896 283.199 128.796 282.467 129.182C282.14 129.329 281.79 129.415 281.432 129.435C277.181 129.935 272.92 130.435 268.64 130.501C266.969 130.527 265.3 130.486 263.631 130.379C263.343 130.376 263.058 130.326 262.787 130.232C262.418 130.055 262.101 129.786 261.867 129.451C259.552 126.531 259.415 122.494 259.43 118.767C259.466 109.654 259.791 100.549 260.406 91.4508C260.456 90.6998 260.468 89.7878 259.927 89.1971C260.98 90.7585 262.186 92.2105 263.528 93.5314Z" fill="white"/>
<path d="M261.125 80.4224C260.742 81.1165 257.917 82.8401 257.371 83.4154C254.324 86.6296 248.762 86.5089 245.975 89.9516C244.995 91.1628 244.485 92.6848 244.111 94.1978C243.581 96.3377 243.298 98.6715 244.186 100.689C245.04 102.631 246.838 103.973 248.059 105.707C249.399 107.612 250.002 109.924 250.579 112.18C251.006 113.846 251.436 115.554 251.27 117.265C251.081 119.212 250.14 120.994 249.584 122.868C249.028 124.743 248.932 126.976 250.217 128.449C251.161 129.531 252.642 129.961 254.057 130.202C255.87 130.474 257.697 130.634 259.53 130.679C261.148 130.75 262.931 130.764 264.174 129.726C265.156 128.907 265.582 127.579 265.637 126.301C265.693 125.024 265.427 123.758 265.261 122.49C265.088 121.176 265.022 119.85 264.966 118.526C264.718 112.584 264.684 106.638 264.865 100.689C264.956 99.452 264.895 98.2089 264.684 96.9871C264.337 95.3956 263.478 93.9732 262.76 92.5109C261.327 89.7567 260.678 86.6611 260.884 83.5626C261.101 80.3783 262.489 77.9524 261.125 80.4224Z" fill="white"/>
<path d="M277.057 80.664C277.641 81.2642 279.624 81.4621 280.366 81.8487C281.065 82.1716 281.793 82.424 282.542 82.6024C285.25 83.3843 287.826 84.5674 290.184 86.1124C290.674 86.3993 291.107 86.7737 291.462 87.2171C291.836 87.8257 292.077 88.5065 292.169 89.2149C292.533 91.0169 292.898 92.8407 292.816 94.6773C292.73 96.6268 292.143 98.5149 291.561 100.377L289.385 107.336C287.762 112.531 286.128 117.776 285.671 123.2C285.418 126.206 285.53 129.231 286.006 132.21C286.05 132.355 286.064 132.507 286.045 132.658C286.026 132.808 285.975 132.953 285.896 133.082C285.753 133.224 285.564 133.311 285.363 133.328C284.313 133.492 283.297 132.956 282.346 132.482C279.439 131.034 276.336 130.019 273.136 129.467C274.386 127.658 275.351 125.668 275.996 123.565C276.363 122.23 276.651 120.875 276.861 119.507L277.873 113.65C278.284 111.51 278.574 109.347 278.741 107.174C278.817 106.358 278.77 105.536 278.6 104.734C278.367 103.972 278.057 103.234 277.676 102.534C276.008 99.0628 275.225 95.1014 275.882 91.3062C276.169 89.6453 276.727 87.9821 276.494 86.3127C276.27 84.7076 276.503 83.4602 276.091 81.8718C274.402 75.3497 275.959 79.5346 277.057 80.664Z" fill="white"/>
<path d="M245.947 95.4401C245.186 97.0188 243.915 98.3638 243.483 100.062C243.314 100.856 243.242 101.667 243.268 102.478C243.193 103.7 243.314 104.926 243.626 106.11C243.867 106.859 244.26 107.55 244.543 108.284C244.938 109.309 245.114 110.406 245.059 111.504C244.983 113.025 244.467 114.501 244.426 116.023C244.363 118.417 245.469 120.667 246.549 122.804C246.82 122.131 247.236 121.525 247.766 121.029C248.296 120.533 248.928 120.159 249.618 119.933C250.308 119.707 251.038 119.635 251.759 119.721C252.479 119.807 253.172 120.05 253.789 120.432C254.037 120.128 254.154 119.739 254.116 119.349C254.196 116.572 254.273 113.794 254.347 111.017C254.464 106.722 254.575 102.37 253.588 98.1882C253.142 96.3003 252.448 94.4196 251.177 92.9552C250.507 92.1842 248.234 90.1532 247.135 91.017C246.641 91.4054 246.756 92.4628 246.678 92.9983C246.56 93.8447 246.313 94.6681 245.947 95.4401Z" fill="white"/>
<path d="M293.038 90.8905C293.344 92.0289 293.475 93.2073 293.427 94.3851C293.441 96.7858 293.409 99.1861 293.331 101.586C293.343 102.817 293.186 104.044 292.864 105.232C292.618 106.004 292.239 106.729 291.986 107.499C291.226 109.807 291.641 112.309 291.706 114.738C291.752 115.524 291.685 116.313 291.507 117.08C291.106 118.586 290.029 119.802 289.276 121.166C288.562 122.462 288.131 123.915 287.278 125.123C286.424 126.332 284.947 127.29 283.516 126.919C282.431 126.638 281.66 125.677 281.127 124.691C279.964 122.522 279.566 120.024 279.998 117.601C280.533 114.654 282.264 112.038 282.888 109.108C283.745 105.084 282.442 100.932 282.481 96.8176C282.463 96.1727 282.551 95.5292 282.74 94.9124C283.067 93.9727 283.77 93.2222 284.42 92.4685C285.231 91.5266 285.985 90.5365 286.677 89.5036C287.142 88.8097 287.774 87.025 288.598 86.8766C290.438 86.5453 292.582 89.4676 293.038 90.8905Z" fill="white"/>
<path d="M236.397 131C235.38 130.744 234.331 130.632 233.282 130.669C232.18 130.729 231.104 131.024 230.125 131.534C229.146 132.043 228.286 132.755 227.603 133.623C226.92 134.491 226.43 135.494 226.165 136.566C225.899 137.638 225.865 138.754 226.064 139.84C226.318 141.017 226.734 142.153 227.298 143.215C228.125 144.893 229.115 146.567 230.645 147.642C231.566 148.233 232.558 148.706 233.598 149.049L241.653 152.085C242.838 152.532 244.023 152.979 245.22 153.393C251.232 155.472 257.5 156.719 263.85 157.099C265.782 157.28 267.73 157.181 269.634 156.806C270.094 156.746 270.516 156.518 270.819 156.165C270.972 155.898 271.063 155.598 271.083 155.291L271.579 151.818C271.69 151.335 271.675 150.831 271.537 150.354C271.31 149.771 270.741 149.404 270.198 149.092C264.902 146.048 258.719 144.369 254.262 140.192C253.213 139.209 252.334 137.65 251.06 136.982C249.614 136.224 247.911 135.792 246.417 135.094C243.15 133.568 239.938 131.814 236.397 131Z" fill="#2F2E41"/>
<path opacity="0.1" d="M244.439 135.681C247.286 136.574 259.306 142.759 261.366 144.918C261.09 145.018 251.72 139.763 251.439 139.678C248.862 138.97 246.338 138.08 243.886 137.015C243.398 136.789 240.714 135.727 240.836 135.11C240.973 134.415 243.933 135.523 244.439 135.681Z" fill="black"/>
<path d="M279.958 158.9C280.119 158.912 280.28 158.865 280.409 158.767C280.466 158.694 280.507 158.611 280.532 158.521C280.556 158.432 280.562 158.339 280.55 158.247L280.537 153.517C279.177 152.869 277.657 152.661 276.164 152.461L269.201 151.53C269.361 151.551 268.112 154.531 268.303 154.929C268.641 155.63 271.22 156.252 271.948 156.583C274.478 157.734 277.108 158.999 279.958 158.9Z" fill="#A0616A"/>
<path d="M258.109 153.5C256.794 153.71 255.326 153.895 254.475 154.919C253.395 156.218 253.855 158.154 254.37 159.763C254.401 159.971 254.474 160.17 254.584 160.349C254.693 160.529 254.838 160.684 255.009 160.806C255.179 160.928 255.373 161.015 255.578 161.061C255.782 161.107 255.994 161.111 256.201 161.074C257.4 161.15 258.676 161.21 259.724 160.621C260.198 160.307 260.655 159.967 261.092 159.603C261.865 159.089 262.714 158.7 263.608 158.452C265.252 157.934 266.945 157.585 268.659 157.41C269.335 157.38 270.003 157.262 270.649 157.059C270.971 156.955 271.265 156.779 271.508 156.542C271.751 156.306 271.936 156.017 272.05 155.698C272.293 154.838 271.793 153.962 271.314 153.208C270.763 152.221 270.046 151.335 269.196 150.589C267.899 149.58 267.257 150.354 265.95 151C263.476 152.221 260.833 153.064 258.109 153.5Z" fill="#A0616A"/>
<path d="M254.673 154.686L246.324 152.216C245.323 151.867 244.276 151.664 243.217 151.614C242.687 151.592 242.158 151.684 241.666 151.883C241.174 152.082 240.73 152.384 240.364 152.768C239.717 153.529 239.531 154.568 239.37 155.554L239.025 157.662C238.795 158.725 238.729 159.818 238.831 160.9C238.887 161.442 239.065 161.964 239.353 162.426C239.64 162.888 240.029 163.279 240.49 163.568C241.645 164.199 243.061 163.891 244.351 163.627C246.955 163.094 249.604 162.81 252.262 162.778C253.262 162.766 254.31 162.779 255.193 162.31C255.705 162.006 256.136 161.581 256.447 161.073C256.758 160.565 256.941 159.988 256.978 159.393C257.143 157.591 256.543 155.239 254.673 154.686Z" fill="#2F2E41"/>
<path d="M283.239 152.534C284.322 152.344 285.277 151.728 286.314 151.365C287.774 150.854 289.356 150.854 290.902 150.859C291.471 150.807 292.042 150.922 292.547 151.189C293.228 151.643 293.403 152.551 293.519 153.362L294.218 158.253C294.405 159.166 294.424 160.105 294.275 161.024C294.07 161.931 293.452 162.805 292.553 163.039C291.462 163.323 290.391 162.625 289.361 162.166C286.784 161.02 283.789 161.313 281.103 160.457C280.846 160.405 280.603 160.3 280.39 160.147C280.177 159.995 279.999 159.799 279.867 159.573C279.776 159.301 279.743 159.013 279.771 158.727C279.817 157.155 279.486 155.008 279.959 153.505C280.384 152.154 282.031 152.534 283.239 152.534Z" fill="#2F2E41"/>
<path d="M300.907 129.031C302.575 128.612 304.305 128.494 306.014 128.682C307.38 128.832 308.786 129.213 309.783 130.158C310.996 131.309 311.386 133.089 311.419 134.762C311.472 138.094 310.368 141.34 308.295 143.948C307.788 144.607 307.186 145.187 306.509 145.668C305.777 146.126 304.998 146.502 304.185 146.789L286.146 153.909C281.401 155.782 276.638 157.66 271.688 158.895C271.553 158.961 271.406 158.998 271.256 159.006C271.106 159.013 270.956 158.991 270.814 158.94C270.673 158.888 270.544 158.809 270.433 158.707C270.323 158.605 270.234 158.482 270.172 158.345C268.592 156.086 267.266 153.659 266.219 151.108C266.169 151.047 266.135 150.976 266.119 150.899C266.103 150.822 266.105 150.743 266.126 150.667C266.148 150.592 266.187 150.523 266.24 150.466C266.294 150.409 266.36 150.365 266.434 150.339L279.193 143.003C280.128 142.515 281.001 141.914 281.79 141.213C282.341 140.678 282.793 140.049 283.123 139.355C283.388 138.802 283.412 137.498 283.75 137.089C284.081 136.689 285.212 136.657 285.735 136.5C286.472 136.274 287.193 136.001 287.895 135.683C290.75 134.405 293.291 132.549 296.027 131.053C297.562 130.175 299.201 129.495 300.907 129.031Z" fill="#2F2E41"/>
<path opacity="0.1" d="M293.674 134.509C291.482 136.157 288.643 137.671 286.471 139.362C285.729 139.939 273.369 146.893 273.194 147.817C275.221 148.158 288.132 139.12 289.98 138.218C291.827 137.316 293.464 136.044 295.087 134.782C295.501 134.46 297.253 133.493 296.066 133.133C295.397 132.931 294.167 134.18 293.674 134.509Z" fill="black"/>
<path d="M278.591 80.8235H259.349C258.568 80.8235 257.818 81.1343 257.265 81.6874C256.712 82.2406 256.402 82.9908 256.402 83.7731V84.8532H256.193V87.2688H256.402V88.9597H256.193V90.409H256.402V108.232C256.402 109.015 256.712 109.765 257.265 110.318C257.818 110.871 258.568 111.182 259.349 111.182H278.591C279.373 111.182 280.123 110.871 280.675 110.318C281.228 109.765 281.539 109.015 281.539 108.232V83.7731C281.539 82.9908 281.228 82.2406 280.675 81.6874C280.123 81.1342 279.373 80.8235 278.591 80.8235Z" fill="#D0CDE1"/>
<path d="M281.649 58.0404L271.89 52.9247L258.413 55.0175L255.624 67.3414L262.565 67.074L264.504 62.5465V66.9997L267.707 66.8764L269.566 59.6678L270.728 67.3414L282.114 67.1087L281.649 58.0404Z" fill="#2F2E41"/>
<path d="M248.5 127.435C248.941 128.186 249.569 128.81 250.322 129.248C250.815 129.474 251.354 129.584 251.897 129.569C252.44 129.555 252.972 129.416 253.453 129.164C254.414 128.649 255.2 127.86 255.713 126.897C256.774 125.023 256.993 122.78 256.861 120.63C256.729 118.48 256.27 116.363 256.067 114.219C255.919 112.66 255.907 111.092 255.895 109.527C255.859 109.197 255.928 108.865 256.093 108.578C256.376 108.295 256.743 108.112 257.139 108.055C259.279 107.418 260.7 105.411 261.719 103.422C262.399 102.094 262.991 100.643 262.859 99.1562C262.728 97.6698 261.661 96.1725 260.177 96.0208C258.954 95.8958 257.825 96.6731 256.943 97.5299C254.717 99.7047 253.287 102.565 252.882 105.651C252.688 107.162 252.744 108.715 252.333 110.182C251.456 113.315 248.712 115.235 247.344 118.054C245.837 121.16 246.669 124.687 248.5 127.435Z" fill="#A0616A"/>
<path d="M288.883 115.467C288.571 116.193 288.117 116.85 287.547 117.398C286.977 117.946 286.303 118.374 285.565 118.657C284.648 119.025 283.636 119.087 282.681 118.834C282.207 118.702 281.77 118.463 281.404 118.135C281.037 117.807 280.751 117.399 280.568 116.942C280.422 116.483 280.342 116.004 280.33 115.522C280.193 113.409 280.246 111.232 281.013 109.259C281.309 108.498 281.707 107.777 281.941 106.994C282.17 106.091 282.287 105.162 282.29 104.23L282.542 98.4657C282.584 98.0472 282.555 97.6247 282.457 97.2159C282.205 96.3819 281.426 95.8398 280.712 95.3425C278.985 94.1413 277.28 92.7396 276.443 90.8093C276.156 90.2282 276.053 89.573 276.148 88.9316C276.384 87.787 277.539 87.046 278.679 86.7964C279.426 86.6331 280.198 86.6226 280.948 86.7658C281.699 86.9089 282.413 87.2026 283.047 87.6291C283.681 88.0557 284.223 88.6063 284.638 89.2478C285.054 89.8893 285.336 90.6084 285.467 91.3618C285.58 92.0123 285.578 92.6768 285.644 93.3337C285.784 94.7271 286.226 96.0703 286.503 97.4432C287.184 100.825 286.831 104.321 287.505 107.702C288.068 110.529 290.192 112.373 288.883 115.467Z" fill="#A0616A"/>
<path d="M269.228 93.7909C270.561 93.7909 271.642 92.7094 271.642 91.3753C271.642 90.0412 270.561 88.9597 269.228 88.9597C267.895 88.9597 266.814 90.0412 266.814 91.3753C266.814 92.7094 267.895 93.7909 269.228 93.7909Z" fill="#008544"/>
<path d="M7.12147 178.191C11.0541 178.191 14.2422 175.001 14.2422 171.066C14.2422 167.13 11.0541 163.94 7.12147 163.94C3.1888 163.94 0.000732422 167.13 0.000732422 171.066C0.000732422 175.001 3.1888 178.191 7.12147 178.191Z" fill="#2F2E41"/>
<path d="M32.933 192.22L29.3463 188.731L22.1443 190.969L22.836 199.314L37.6444 198.626L33.0952 192.44L32.933 192.22Z" fill="#FBBEBE"/>
<path d="M25.0887 192.148C31.4468 192.148 36.601 186.99 36.601 180.627C36.601 174.265 31.4468 169.107 25.0887 169.107C18.7306 169.107 13.5764 174.265 13.5764 180.627C13.5764 186.99 18.7306 192.148 25.0887 192.148Z" fill="#FBBEBE"/>
<path d="M96.5576 207.006C96.5576 207.006 110.701 231.327 114.067 234.979C115.667 236.776 117.373 238.477 119.174 240.072C119.174 240.072 117.591 245.325 115.071 245.137C113.634 245.051 112.226 244.703 110.914 244.112C110.914 244.112 109.789 241.194 107.827 239.914C105.865 238.635 89.8352 222.854 90.2098 217.81C90.5845 212.767 96.5576 207.006 96.5576 207.006Z" fill="#2F2E41"/>
<path d="M46.1899 241.714C46.1899 241.714 61.2696 253.426 81.7634 242.421L83.5296 241.12C83.5296 241.12 80.5491 247.83 80.2725 249.649C79.9519 251.758 72.1921 264.114 70.9258 264.705C69.6595 265.297 69.3805 265.844 69.3805 265.844L74.7542 271.762L76.7411 270.299C76.7411 270.299 84.4885 259.315 86.7544 257.306C89.0203 255.297 99.8164 234.575 99.8164 234.575C99.8164 234.575 103.944 226.768 93.6427 226.18C83.3414 225.593 78.6012 228.403 78.6012 228.403L60.3189 231.309L46.1899 241.714Z" fill="#2F2E41"/>
<path d="M119.349 238.922L126.976 244.203C126.976 244.203 136.707 247.254 130.713 249.284C124.719 251.314 108.923 252.049 108.565 249.247C108.206 246.446 109.188 242.037 109.976 242.279C110.764 242.52 116.233 243.941 119.349 238.922Z" fill="#2F2E41"/>
<path d="M77.4162 268.485L78.8279 276.243C78.8279 276.243 82.8421 283.925 78.0224 281.541C73.2026 279.158 63.2727 270.103 64.739 268.205C66.2053 266.307 69.4417 264.248 69.7704 264.867C70.099 265.485 72.5315 269.627 77.4162 268.485Z" fill="#2F2E41"/>
<path d="M62.8725 233.856C62.8725 233.856 52.6217 245.832 46.3983 242.923C40.1749 240.014 14.7137 206.318 17.6209 200.09C20.5282 193.862 21.503 195.188 21.503 195.188L34.6494 196.404L30.8668 190.335C30.8668 190.335 32.6329 189.035 34.3159 190.86C35.9988 192.686 42.7555 197.246 45.1093 203.686C47.4631 210.126 54.3737 209.805 54.3737 209.805L62.8725 233.856Z" fill="white"/>
<path d="M104.268 209.161L86.4989 228.036L70.5811 199.912L85.7136 181.617L104.268 209.161Z" fill="#3F3D56"/>
<path d="M102.927 208.956L86.8781 225.543L72.335 199.983L85.6723 183.18L102.927 208.956Z" fill="white"/>
<path d="M85.6284 227.315L86.499 228.036L85.9407 229.128L61.0938 236.528L60.8589 235.676L61.9893 234.506L85.6284 227.315Z" fill="#B3B3B3"/>
<path d="M86.7197 227.873L60.99 235.923L45.3054 206.266L70.5811 199.912L86.7197 227.873Z" fill="#D0CDE1"/>
<path d="M84.7827 223.851L83.6788 224.663L71.4272 203.376L72.6935 202.784L84.7827 223.851Z" fill="#3F3D56"/>
<path d="M82.2497 225.034L71.3655 228.282L59.0098 206.391L69.7775 203.91L82.2497 225.034Z" fill="#3F3D56"/>
<path d="M51.587 208.792L53.8405 208.154C53.8405 208.154 66.4078 206.732 66.5912 210.684C66.7747 214.635 52.1537 212.802 52.1537 212.802L50.2041 210.151L51.587 208.792Z" fill="#FBBEBE"/>
<path d="M62.6095 226.557L65.7461 225.269C65.7461 225.269 75.2141 221.021 72.4981 218.253C69.782 215.485 61.4054 220.292 61.4054 220.292L59.8018 221.814L62.6095 226.557Z" fill="#FBBEBE"/>
<path d="M59.8144 220.442C59.8144 220.442 64.9216 225.536 63.7595 226.732C62.5973 227.928 43.5409 243.665 38.8169 238.63C34.093 233.595 11.0774 208.314 20.0331 206.146C28.9889 203.979 31.3551 209.047 31.3551 209.047L43.1778 229.288L59.8144 220.442Z" fill="white"/>
<path d="M44.5219 204.97L52.9112 207.816L52.7742 213.877L43.9016 212.919L44.5219 204.97Z" fill="white"/>
<path opacity="0.2" d="M52.0835 223.581L43.0447 228.876L32.7175 212.982L42.6861 226.074L52.0835 223.581Z" fill="black"/>
<path d="M20.0357 191.003C27.6048 191.003 33.7408 184.862 33.7408 177.288C33.7408 169.714 27.6048 163.574 20.0357 163.574C12.4665 163.574 6.33057 169.714 6.33057 177.288C6.33057 184.862 12.4665 191.003 20.0357 191.003Z" fill="#2F2E41"/>
<path d="M94.0875 210.357L84.4912 196.31L88.5591 191.271L98.5305 205.723L94.0875 210.357Z" fill="#008544"/>
<path d="M93.8169 216.005L79.2075 194.752L79.9281 193.88L94.4692 215.184L93.8169 216.005Z" fill="#E6E6E6"/>
<path d="M91.9346 218.073L77.3252 196.819L78.0458 195.948L92.5869 217.252L91.9346 218.073Z" fill="#E6E6E6"/>
<path d="M90.3306 219.594L75.7212 198.341L76.4418 197.47L90.9829 218.774L90.3306 219.594Z" fill="#E6E6E6"/>
<path d="M26.1047 168.132H30.3444C32.491 168.132 34.5497 168.985 36.0676 170.504C37.5855 172.023 38.4383 174.083 38.4383 176.231H26.1047V168.132Z" fill="#2F2E41"/>
<path d="M84.5054 162.978L83.7369 162.921C83.707 163.32 83.6857 163.723 83.6604 164.124L80.2104 164.008L83.8293 170.794L87.8935 164.266L84.431 164.15C84.4557 163.759 84.4764 163.367 84.5054 162.978Z" fill="#3F3D56"/>
<path d="M104.74 107.664L105.353 108.132C106.272 106.927 107.232 105.725 108.207 104.557L107.615 104.063C106.634 105.239 105.666 106.45 104.74 107.664Z" fill="#3F3D56"/>
<path d="M110.645 100.592L111.214 101.112C112.237 99.9918 113.299 98.8788 114.37 97.804L113.824 97.2594C112.745 98.3419 111.675 99.4633 110.645 100.592Z" fill="#3F3D56"/>
<path d="M117.146 94.0697L117.667 94.6381C118.785 93.6104 119.94 92.5954 121.099 91.621L120.603 91.0304C119.436 92.0119 118.272 93.0347 117.146 94.0697Z" fill="#3F3D56"/>
<path d="M99.479 115.231L100.131 115.643C100.941 114.36 101.792 113.077 102.659 111.829L102.026 111.389C101.152 112.646 100.295 113.939 99.479 115.231Z" fill="#3F3D56"/>
<path d="M124.19 88.1464L124.66 88.7581C125.864 87.8327 127.103 86.9235 128.343 86.0557L127.901 85.4236C126.652 86.298 125.404 87.214 124.19 88.1464Z" fill="#3F3D56"/>
<path d="M94.905 123.238L95.5904 123.59C96.2849 122.239 97.0192 120.885 97.7729 119.566L97.1037 119.183C96.3443 120.512 95.6045 121.876 94.905 123.238Z" fill="#3F3D56"/>
<path d="M87.4699 144.95L86.7235 144.758C86.3426 146.238 85.9899 147.747 85.6753 149.244L86.4296 149.403C86.742 147.917 87.092 146.419 87.4699 144.95Z" fill="#3F3D56"/>
<path d="M131.726 82.8681L132.14 83.5189C133.417 82.7053 134.731 81.9093 136.044 81.1528L135.66 80.4843C134.337 81.2466 133.013 82.0485 131.726 82.8681Z" fill="#3F3D56"/>
<path d="M85.5882 153.897L84.8275 153.772C84.58 155.278 84.3626 156.812 84.1814 158.333L84.947 158.424C85.1267 156.915 85.3426 155.392 85.5882 153.897Z" fill="#3F3D56"/>
<path d="M91.0574 131.623L91.7714 131.913C92.3429 130.505 92.9544 129.091 93.5886 127.709L92.8881 127.387C92.249 128.779 91.6331 130.205 91.0574 131.623Z" fill="#3F3D56"/>
<path d="M87.9697 140.323L88.7071 140.548C89.1516 139.093 89.6347 137.628 90.143 136.196L89.4166 135.938C88.9045 137.381 88.4176 138.856 87.9697 140.323Z" fill="#3F3D56"/>
<path d="M183.87 67.4933C185.381 67.441 186.92 67.4201 188.442 67.4344L188.449 66.663C186.916 66.6487 185.365 66.6696 183.844 66.7223L183.87 67.4933Z" fill="#3F3D56"/>
<path d="M139.694 78.2779L140.048 78.9627C141.395 78.2647 142.773 77.5885 144.144 76.9525L143.82 76.2527C142.438 76.8934 141.05 77.5747 139.694 78.2779Z" fill="#3F3D56"/>
<path d="M202.11 68.4551C203.614 68.6681 205.132 68.9175 206.621 69.1964L206.763 68.4382C205.262 68.1572 203.733 67.9058 202.218 67.6913L202.11 68.4551Z" fill="#3F3D56"/>
<path d="M211.095 70.1372C212.571 70.4822 214.061 70.8656 215.522 71.2768L215.73 70.534C214.258 70.1199 212.758 69.7338 211.27 69.3862L211.095 70.1372Z" fill="#3F3D56"/>
<path d="M219.893 72.6125C221.332 73.0877 222.782 73.6022 224.201 74.1419L224.475 73.421C223.045 72.8771 221.585 72.3587 220.134 71.8799L219.893 72.6125Z" fill="#3F3D56"/>
<path d="M193.012 67.5745C194.53 67.6542 196.064 67.7687 197.571 67.9144L197.646 67.1468C196.127 66.9997 194.582 66.8845 193.053 66.8043L193.012 67.5745Z" fill="#3F3D56"/>
<path d="M174.667 67.444L174.761 68.2097C176.263 68.0248 177.793 67.8706 179.307 67.7515L179.247 66.9824C177.721 67.1024 176.18 67.2578 174.667 67.444Z" fill="#3F3D56"/>
<path d="M156.684 71.3031L156.912 72.0398C158.361 71.5911 159.839 71.1688 161.306 70.7848L161.111 70.0387C159.633 70.4253 158.144 70.8507 156.684 71.3031Z" fill="#3F3D56"/>
<path d="M148.031 74.4133L148.324 75.127C149.725 74.5515 151.157 74.0006 152.579 73.4893L152.318 72.7635C150.886 73.2784 149.443 73.8336 148.031 74.4133Z" fill="#3F3D56"/>
<path d="M165.59 68.9728L165.752 69.7273C167.233 69.4096 168.743 69.1205 170.24 68.8683L170.112 68.1075C168.604 68.3617 167.082 68.6529 165.59 68.9728Z" fill="#3F3D56"/>
<path d="M235.702 78.9113L231.394 72.5409L229.88 75.6608C229.513 75.497 229.148 75.3296 228.782 75.171L228.476 75.879C228.833 76.0339 229.187 76.1963 229.543 76.355L228.035 79.4602L235.702 78.9113Z" fill="#3F3D56"/>
</g>
<defs>
<clipPath id="clip0_165_139">
<rect width="349" height="282" fill="white"/>
</clipPath>
</defs>
</svg>
