<?xml version="1.0" encoding="UTF-8"?><svg id="Capa_1" xmlns="http://www.w3.org/2000/svg" viewBox="0 0 1500 1500"><defs><style>.cls-1{fill:#009945;}.cls-2{fill:#1f231e;}</style></defs><path class="cls-1" d="m690.67,736.35c-9.81-3.49-16.35-12.79-16.35-23.2v-.42c0-41.36-22.46-77.48-55.85-96.82-8.31-4.81-15.21-11.71-20.02-20.02-19.35-33.36-55.45-55.81-96.79-55.81h-.42c-10.41,0-19.71-6.54-23.2-16.35-3.57-10.02-4.33-30.24-13.65-30.24s-10.08,20.23-13.65,30.24c-3.49,9.81-12.79,16.35-23.2,16.35h-.42c-41.34,0-77.44,22.44-96.79,55.81-4.82,8.3-11.72,15.2-20.02,20.02-33.39,19.34-55.85,55.45-55.85,96.82v.42c0,10.41-6.54,19.71-16.35,23.2-10.02,3.57-30.24,4.33-30.24,13.65s20.23,10.08,30.24,13.65c9.81,3.49,16.35,12.79,16.35,23.2v.42c0,41.36,22.46,77.48,55.85,96.82,8.31,4.81,15.21,11.71,20.02,20.02,19.35,33.36,55.45,55.81,96.79,55.81h.42c10.41,0,19.71,6.54,23.2,16.35,3.57,10.02,4.33,30.24,13.65,30.24s10.08-20.23,13.65-30.24c3.49-9.81,12.79-16.35,23.2-16.35h.42c41.34,0,77.44-22.44,96.79-55.81,4.82-8.3,11.72-15.2,20.02-20.02,33.39-19.34,55.85-55.45,55.85-96.82v-.42c0-10.41,6.54-19.71,16.35-23.2,10.02-3.57,30.24-4.33,30.24-13.65s-20.23-10.08-30.24-13.65Zm-7.03,14.89c0,4.46-3.61,8.07-8.07,8.07h0c-41.86,0-66.47,33.93-66.47,75.79v26.71c0,8.71-2.55,15.39-6.45,20.5-.1.12-.19.24-.29.36-.08.1-.15.19-.23.29-5.52,6.72-13.73,11.72-25.93,11.72h-26.71c-41.86,0-75.79,24.61-75.79,66.47h0c0,4.46-3.61,8.07-8.07,8.07h-2.49c-4.46,0-8.07-3.61-8.07-8.07h0c0-41.86-33.93-66.47-75.79-66.47h-26.71c-12.21,0-20.41-5-25.93-11.72-.08-.09-.15-.19-.23-.29-.1-.12-.19-.24-.29-.36-3.9-5.12-6.45-11.79-6.45-20.5v-26.71c0-41.86-24.61-75.79-66.47-75.79h0c-4.46,0-8.07-3.61-8.07-8.07v-2.49c0-4.46,3.61-8.07,8.07-8.07h0c41.86,0,66.47-33.93,66.47-75.79v-26.71c0-8.71,2.55-15.39,6.45-20.5.09-.12.19-.24.28-.36.08-.1.16-.2.23-.29,5.52-6.72,13.73-11.72,25.93-11.72h26.71c41.86,0,75.79-24.61,75.79-66.47h0c0-4.46,3.61-8.07,8.07-8.07h2.49c4.46,0,8.07,3.61,8.07,8.07h0c0,41.86,33.93,66.47,75.79,66.47h26.71c12.21,0,20.41,5,25.93,11.72.08.1.15.19.23.29.1.12.19.24.29.36,3.9,5.12,6.45,11.79,6.45,20.5v26.71c0,41.86,24.61,75.79,66.47,75.79h0c4.46,0,8.07,3.61,8.07,8.07v2.49Z"/><g><path class="cls-2" d="m915.85,623.45c-11.43-5.45-24.97-8.18-40.62-8.18h-107.88v197.82h44.84v-67h63.04c15.65,0,29.19-2.77,40.62-8.31,11.43-5.54,20.18-13.19,26.24-22.95,6.07-9.76,9.1-21.14,9.1-34.16s-3.03-24.44-9.1-34.29c-6.07-9.85-14.82-17.5-26.24-22.95Zm-18.6,78.07c-5.89,5.1-14.02,7.65-24.4,7.65h-60.67v-56.97h60.67c10.37,0,18.5,2.51,24.4,7.52,5.89,5.01,8.84,12,8.84,20.97s-2.95,15.74-8.84,20.84Z"/><path class="cls-2" d="m1107.87,663.02l-3.8,33.21c-7.55-11.79-16.96-20.93-28.25-27.41-11.34-6.5-24.05-9.76-38.11-9.76s-27.52,3.3-38.77,9.89c-11.25,6.59-20,15.83-26.24,27.7-6.24,11.87-9.36,25.72-9.36,41.54s3.12,29.41,9.36,41.28c6.24,11.87,14.99,21.1,26.24,27.7,11.25,6.59,24.18,9.89,38.77,9.89s26.77-3.26,38.11-9.76c11.33-6.5,20.73-15.68,28.2-27.53l3.85,33.33h45.63l-8.7-74.91,8.7-75.17h-45.63Zm-34.42,114.08c-7.3,3.78-15.08,5.67-23.34,5.67s-15.56-1.89-21.89-5.67c-6.33-3.78-11.3-9.01-14.9-15.69-3.61-6.68-5.41-14.42-5.41-23.21s1.8-16.57,5.41-23.34c3.6-6.77,8.57-12.04,14.9-15.83,6.33-3.78,13.62-5.67,21.89-5.67s16.04,1.89,23.34,5.67c7.29,3.78,13.76,9.06,19.39,15.83,5.63,6.77,10.02,14.55,13.19,23.34-3.17,8.79-7.56,16.53-13.19,23.21-5.63,6.69-12.09,11.92-19.39,15.69Z"/><rect class="cls-2" x="1183.04" y="610" width="44.05" height="203.1"/></g><g><path class="cls-2" d="m828.31,878.72c-.52,4.94-2.23,9.29-5.14,13.05-2.91,3.77-6.71,6.69-11.42,8.77s-10.06,3.12-16.09,3.12c-6.65,0-12.48-1.27-17.49-3.82-5.01-2.54-8.92-6.09-11.73-10.64-2.81-4.54-4.21-9.86-4.21-15.93s1.4-11.39,4.21-15.93c2.8-4.54,6.71-8.09,11.73-10.64,5.01-2.54,10.84-3.82,17.49-3.82,6.03,0,11.39,1.04,16.09,3.12,4.7,2.08,8.51,4.99,11.42,8.73,2.91,3.74,4.62,8.1,5.14,13.09h-13.32c-.52-2.75-1.64-5.13-3.35-7.13-1.71-2-3.92-3.53-6.62-4.6-2.7-1.06-5.84-1.6-9.43-1.6-4.1,0-7.65.75-10.64,2.26-2.99,1.51-5.29,3.67-6.9,6.51-1.61,2.83-2.42,6.17-2.42,10.01s.8,7.18,2.42,10.01c1.61,2.83,3.91,5,6.9,6.51,2.99,1.51,6.53,2.26,10.64,2.26,3.58,0,6.73-.52,9.43-1.56,2.7-1.04,4.91-2.56,6.62-4.56,1.71-2,2.83-4.4,3.35-7.21h13.32Z"/><path class="cls-2" d="m861.58,903.65c-5.51,0-10.34-.97-14.49-2.92-4.16-1.95-7.4-4.67-9.74-8.18-2.34-3.51-3.51-7.57-3.51-12.19s1.17-8.77,3.51-12.27c2.34-3.51,5.58-6.23,9.74-8.18,4.16-1.95,8.99-2.92,14.49-2.92s10.34.97,14.49,2.92c4.16,1.95,7.39,4.67,9.7,8.18,2.31,3.51,3.47,7.6,3.47,12.27s-1.16,8.69-3.47,12.19c-2.31,3.51-5.54,6.23-9.7,8.18-4.16,1.95-8.99,2.92-14.49,2.92Zm0-9.9c3.01,0,5.6-.55,7.75-1.64,2.16-1.09,3.82-2.64,4.99-4.64,1.17-2,1.75-4.38,1.75-7.13s-.58-5.21-1.75-7.21c-1.17-2-2.83-3.54-4.99-4.64-2.16-1.09-4.74-1.64-7.75-1.64s-5.53.55-7.71,1.64-3.86,2.64-5.03,4.64c-1.17,2-1.75,4.4-1.75,7.21s.58,5.13,1.75,7.13c1.17,2,2.84,3.54,5.03,4.64s4.75,1.64,7.71,1.64Z"/><path class="cls-2" d="m897.27,842.49h13.01v60h-13.01v-60Z"/><path class="cls-2" d="m920.57,842.49h13.01v60h-13.01v-60Z"/><path class="cls-2" d="m968.87,903.65c-5.25,0-9.93-.97-14.06-2.92-4.13-1.95-7.38-4.69-9.74-8.22-2.36-3.53-3.54-7.64-3.54-12.31s1.13-8.67,3.39-12.16c2.26-3.48,5.36-6.19,9.31-8.14,3.95-1.95,8.44-2.92,13.48-2.92s9.56,1.13,13.25,3.39,6.53,5.44,8.53,9.54c2,4.1,3,8.93,3,14.49h-40.52v-8.65h33.5l-5.14,3.12c-.16-2.6-.77-4.8-1.83-6.62-1.07-1.82-2.49-3.22-4.29-4.21-1.79-.99-3.93-1.48-6.43-1.48-2.65,0-4.95.53-6.9,1.6s-3.46,2.54-4.52,4.44c-1.07,1.9-1.6,4.12-1.6,6.66,0,3.07.69,5.69,2.06,7.87,1.38,2.18,3.35,3.84,5.92,4.99,2.57,1.14,5.7,1.71,9.39,1.71,3.32,0,6.69-.48,10.09-1.44,3.4-.96,6.43-2.32,9.08-4.09v8.73c-2.91,2.08-6.3,3.7-10.17,4.87-3.87,1.17-7.96,1.75-12.27,1.75Z"/><path class="cls-2" d="m1051.47,884.41c-.47,3.79-1.91,7.14-4.32,10.05-2.42,2.91-5.53,5.17-9.35,6.78-3.82,1.61-8.06,2.42-12.74,2.42-5.3,0-9.96-.97-13.99-2.92-4.03-1.95-7.17-4.69-9.43-8.22-2.26-3.53-3.39-7.58-3.39-12.16s1.13-8.69,3.39-12.19c2.26-3.51,5.4-6.25,9.43-8.22,4.03-1.97,8.69-2.96,13.99-2.96,4.67,0,8.92.81,12.74,2.42,3.82,1.61,6.93,3.87,9.35,6.78,2.42,2.91,3.86,6.29,4.32,10.13h-13.01c-.68-3.01-2.22-5.34-4.64-6.97-2.42-1.64-5.34-2.45-8.77-2.45-2.75,0-5.16.53-7.21,1.6-2.05,1.07-3.62,2.6-4.71,4.6-1.09,2-1.64,4.43-1.64,7.29s.54,5.21,1.64,7.21c1.09,2,2.66,3.53,4.71,4.6,2.05,1.07,4.45,1.6,7.21,1.6,3.48,0,6.43-.86,8.84-2.57,2.42-1.71,3.93-3.97,4.56-6.78h13.01Z"/><path class="cls-2" d="m1053.88,867.97v-5.77l9.27-3.04,5.53-12.7h7.48v11.69h19.64v9.82h-19.64v16.13c0,3.43.73,5.83,2.18,7.21,1.45,1.38,3.92,2.07,7.4,2.07,2.23,0,4.22-.21,5.96-.62,1.74-.42,3.36-1.01,4.87-1.79v10.13c-1.51.62-3.51,1.21-6,1.75-2.49.55-5.06.82-7.71.82-4.62,0-8.38-.74-11.26-2.22-2.88-1.48-5.01-3.54-6.39-6.19-1.38-2.65-2.06-5.74-2.06-9.27v-18h-9.27Z"/><path class="cls-2" d="m1110.45,853.09c-2.34,0-4.25-.61-5.73-1.83-1.48-1.22-2.22-2.87-2.22-4.95s.74-3.65,2.22-4.87c1.48-1.22,3.39-1.83,5.73-1.83s4.31.61,5.77,1.83c1.45,1.22,2.18,2.84,2.18,4.87s-.73,3.73-2.18,4.95c-1.46,1.22-3.38,1.83-5.77,1.83Zm-6.47,4.6l6.47,1.25,6.54-1.25v44.8h-13.01v-44.8Z"/><path class="cls-2" d="m1153.85,896.41h-4.67l16.75-38.26h13.87l-21.12,44.33h-14.8l-21.12-44.33h14.34l16.75,38.26Z"/><path class="cls-2" d="m1208.08,903.65c-5.25,0-9.93-.97-14.06-2.92-4.13-1.95-7.38-4.69-9.74-8.22-2.36-3.53-3.54-7.64-3.54-12.31s1.13-8.67,3.39-12.16c2.26-3.48,5.36-6.19,9.31-8.14,3.95-1.95,8.44-2.92,13.48-2.92s9.56,1.13,13.25,3.39,6.53,5.44,8.53,9.54c2,4.1,3,8.93,3,14.49h-40.52v-8.65h33.5l-5.14,3.12c-.16-2.6-.77-4.8-1.83-6.62-1.07-1.82-2.49-3.22-4.29-4.21-1.79-.99-3.93-1.48-6.43-1.48-2.65,0-4.95.53-6.9,1.6s-3.46,2.54-4.52,4.44c-1.07,1.9-1.6,4.12-1.6,6.66,0,3.07.69,5.69,2.06,7.87,1.38,2.18,3.35,3.84,5.92,4.99,2.57,1.14,5.7,1.71,9.39,1.71,3.32,0,6.69-.48,10.09-1.44,3.4-.96,6.43-2.32,9.08-4.09v8.73c-2.91,2.08-6.3,3.7-10.17,4.87-3.87,1.17-7.96,1.75-12.27,1.75Z"/></g></svg>