<?xml version="1.0" encoding="UTF-8"?><svg id="Capa_1" xmlns="http://www.w3.org/2000/svg" viewBox="0 0 1500 1500"><defs><style>.cls-1{fill:#009945;}</style></defs><path class="cls-1" d="m1098.13,729c-15.09-5.37-25.15-19.68-25.15-35.7v-.64c0-63.64-34.56-119.19-85.93-148.95-12.78-7.4-23.4-18.02-30.81-30.79-29.76-51.33-85.3-85.85-148.91-85.85h-.64c-16.02,0-30.33-10.06-35.7-25.15-5.49-15.41-6.66-46.53-21-46.53s-15.51,31.12-21,46.53c-5.37,15.09-19.68,25.15-35.7,25.15h-.64c-63.61,0-119.14,34.53-148.91,85.86-7.41,12.78-18.03,23.39-30.81,30.79-51.37,29.75-85.93,85.31-85.93,148.95v.64c0,16.02-10.06,30.33-25.15,35.7-15.41,5.49-46.53,6.66-46.53,21s31.12,15.51,46.53,21c15.09,5.37,25.15,19.68,25.15,35.7v.64c0,63.64,34.56,119.19,85.93,148.95,12.78,7.4,23.4,18.02,30.81,30.79,29.77,51.33,85.3,85.86,148.91,85.86h.64c16.02,0,30.33,10.06,35.7,25.15,5.49,15.41,6.66,46.53,21,46.53s15.51-31.12,21-46.53c5.37-15.09,19.68-25.15,35.7-25.15h.64c63.61,0,119.14-34.53,148.91-85.86,7.41-12.78,18.03-23.39,30.81-30.79,51.37-29.75,85.93-85.31,85.93-148.95v-.64c0-16.02,10.06-30.33,25.15-35.7,15.41-5.49,46.53-6.66,46.53-21s-31.12-15.51-46.53-21Zm-10.81,22.91c0,6.86-5.56,12.42-12.42,12.42h0c-64.39,0-102.26,52.2-102.26,116.6v41.09c0,13.4-3.92,23.67-9.92,31.54-.15.19-.29.37-.44.56-.12.15-.23.29-.35.44-8.49,10.34-21.12,18.03-39.9,18.03h-41.09c-64.39,0-116.6,37.87-116.6,102.26h0c0,6.86-5.56,12.42-12.42,12.42h-3.83c-6.86,0-12.42-5.56-12.42-12.42h0c0-64.39-52.2-102.26-116.6-102.26h-41.09c-18.78,0-31.41-7.69-39.9-18.03-.12-.15-.23-.29-.35-.44-.15-.19-.3-.37-.44-.56-6-7.87-9.92-18.14-9.92-31.54v-41.09c0-64.39-37.87-116.6-102.26-116.6h0c-6.86,0-12.42-5.56-12.42-12.42v-3.83c0-6.86,5.56-12.42,12.42-12.42h0c64.39,0,102.26-52.2,102.26-116.6v-41.09c0-13.4,3.92-23.67,9.92-31.54.14-.18.29-.37.43-.55.12-.15.24-.3.36-.45,8.49-10.34,21.12-18.02,39.9-18.02h41.09c64.39,0,116.6-37.87,116.6-102.26h0c0-6.86,5.56-12.42,12.42-12.42h3.83c6.86,0,12.42,5.56,12.42,12.42h0c0,64.39,52.2,102.26,116.6,102.26h41.09c18.78,0,31.4,7.69,39.9,18.03.12.15.24.29.35.44.15.19.3.37.44.56,6,7.87,9.92,18.14,9.92,31.54v41.09c0,64.39,37.87,116.6,102.26,116.6h0c6.86,0,12.42,5.56,12.42,12.42v3.83Z"/></svg>