<svg width="724" height="724" viewBox="0 0 724 724" fill="none" xmlns="http://www.w3.org/2000/svg">
<path d="M681.322 342.727C667.481 337.801 658.253 324.673 658.253 309.978V309.391C658.253 251.011 626.554 200.053 579.437 172.753C567.715 165.965 557.974 156.223 551.177 144.508C523.88 97.4213 472.938 65.7548 414.594 65.7548H414.006C399.313 65.7548 386.187 56.5264 381.262 42.6837C376.226 28.5476 375.153 0 362 0C348.847 0 347.774 28.5476 342.738 42.6837C337.813 56.5264 324.687 65.7548 309.993 65.7548H309.406C251.062 65.7548 200.129 97.4305 172.823 144.517C166.026 156.241 156.285 165.974 144.563 172.762C97.4456 200.053 65.7465 251.02 65.7465 309.4V309.987C65.7465 324.683 56.5192 337.81 42.6783 342.736C28.5439 347.772 0 348.845 0 362C0 375.155 28.5439 376.228 42.6783 381.264C56.5192 386.19 65.7465 399.317 65.7465 414.013V414.6C65.7465 472.98 97.4456 523.938 144.563 551.238C156.285 558.026 166.026 567.768 172.823 579.483C200.129 626.57 251.062 658.245 309.406 658.245H309.993C324.687 658.245 337.813 667.474 342.738 681.316C347.774 695.452 348.847 724 362 724C375.153 724 376.226 695.452 381.262 681.316C386.187 667.474 399.313 658.245 414.006 658.245H414.594C472.938 658.245 523.871 626.57 551.177 579.483C557.974 567.759 567.715 558.026 579.437 551.238C626.554 523.947 658.253 472.98 658.253 414.6V414.013C658.253 399.317 667.481 386.19 681.322 381.264C695.456 376.228 724 375.155 724 362C724 348.845 695.456 347.772 681.322 342.736V342.727ZM671.406 363.743C671.406 370.036 666.307 375.136 660.015 375.136C600.955 375.136 566.219 423.021 566.219 482.098V519.791C566.219 532.084 562.624 541.505 557.121 548.724C556.983 548.898 556.855 549.064 556.717 549.238C556.607 549.375 556.506 549.504 556.396 549.641C548.609 559.127 537.024 566.181 519.799 566.181H482.11C423.05 566.181 375.162 600.921 375.162 659.988C375.162 666.281 370.062 671.381 363.77 671.381H360.257C353.965 671.381 348.865 666.281 348.865 659.988C348.865 600.921 300.986 566.181 241.917 566.181H204.229C187.003 566.181 175.419 559.127 167.632 549.641C167.521 549.504 167.421 549.375 167.31 549.238C167.173 549.064 167.035 548.898 166.907 548.724C161.404 541.505 157.808 532.084 157.808 519.791V482.098C157.808 423.03 123.073 375.136 64.0129 375.136C57.7208 375.136 52.621 370.036 52.621 363.743V360.23C52.621 353.937 57.7208 348.836 64.0129 348.836C123.073 348.836 157.808 300.951 157.808 241.875V204.181C157.808 191.889 161.404 182.468 166.907 175.248C167.035 175.083 167.173 174.909 167.301 174.744C167.411 174.606 167.521 174.469 167.632 174.331C175.419 164.846 187.003 157.8 204.229 157.8H241.917C300.977 157.8 348.865 123.061 348.865 63.9935C348.865 57.7006 353.965 52.6002 360.257 52.6002H363.77C370.062 52.6002 375.162 57.7006 375.162 63.9935C375.162 123.061 423.041 157.8 482.11 157.8H519.799C537.024 157.8 548.6 164.855 556.396 174.34C556.506 174.478 556.616 174.606 556.717 174.744C556.855 174.918 556.992 175.083 557.121 175.257C562.624 182.477 566.219 191.898 566.219 204.19V241.884C566.219 300.951 600.955 348.845 660.015 348.845C666.307 348.845 671.406 353.946 671.406 360.239V363.752V363.743Z" fill="#009945" fill-opacity="0.8"/>
</svg>
